<svg width="19" height="19" viewBox="0 0 19 19" fill="none" xmlns="http://www.w3.org/2000/svg">
<g id="Google logo">
<g clip-path="url(#clip0_160_261)">
<path id="Vector" d="M18.674 9.71058C18.674 8.93171 18.6121 8.36334 18.4782 7.77393H9.77246V11.2894H14.8825C14.7796 12.163 14.2232 13.4787 12.9869 14.3628L12.9695 14.4805L15.7221 16.659L15.9128 16.6784C17.6643 15.0259 18.674 12.5945 18.674 9.71058Z" fill="#4285F4"/>
<path id="Vector_2" d="M9.77263 18.9729C12.2761 18.9729 14.3779 18.1308 15.913 16.6783L12.987 14.3627C12.2041 14.9205 11.1532 15.31 9.77263 15.31C7.32061 15.31 5.23948 13.6575 4.49762 11.3735L4.38888 11.383L1.52669 13.6459L1.48926 13.7522C3.01404 16.8467 6.14606 18.9729 9.77263 18.9729Z" fill="#34A853"/>
<path id="Vector_3" d="M4.4974 11.3736C4.30165 10.7842 4.18836 10.1526 4.18836 9.50004C4.18836 8.84742 4.30165 8.21592 4.4871 7.62651L4.48191 7.50098L1.58385 5.20166L1.48903 5.24774C0.860597 6.53185 0.5 7.97386 0.5 9.50004C0.5 11.0262 0.860597 12.4682 1.48903 13.7523L4.4974 11.3736Z" fill="#FBBC05"/>
<path id="Vector_4" d="M9.77263 3.68991C11.5138 3.68991 12.6882 4.45826 13.3579 5.10036L15.9748 2.49004C14.3676 0.963864 12.2761 0.0270996 9.77263 0.0270996C6.14606 0.0270996 3.01404 2.15321 1.48926 5.24766L4.48732 7.62643C5.23949 5.34242 7.32061 3.68991 9.77263 3.68991Z" fill="#EB4335"/>
</g>
</g>
<defs>
<clipPath id="clip0_160_261">
<rect x="0.5" width="18.1739" height="19" rx="9.08696" fill="white"/>
</clipPath>
</defs>
</svg>
